<?xml version="1.0" encoding="UTF-8"?>
<svg id="_レイヤー_1" data-name="レイヤー_1" xmlns="http://www.w3.org/2000/svg" width="2893.8" height="229.5" version="1.1" viewBox="0 0 2893.8 229.5">
  <!-- Generator: Adobe Illustrator 29.2.1, SVG Export Plug-In . SVG Version: 2.1.0 Build 116)  -->
  <g>
    <path d="M818.4-451.4c-440.2,0-797.1,125.5-797.1,280.4h1594.3c0-154.8-356.9-280.4-797.1-280.4Z" fill="#29abe2"/>
    <path d="M142.9-319.3s45.7,17.2,59.9,25c20.2,11.1,40.7,14.9,59.6,13.1,45.1-4.4,66.3-5.6,72.3-18,8.4-17.4,3.8-18.5,21.7-44.3,17.9-25.9,103.8,15,121.7,7.9,17.9-7.1,10-31.9,10-31.9-8.5-35.8,69.1-13.2,93.6-15.7,24.5-2.4,28.5-57.8,28.5-57.8,0,0-158.9,14.7-282.2,48.9-121.4,33.7-185,72.8-185,72.8Z" fill="#00a99d" stroke="#00a99d" stroke-miterlimit="10" stroke-width="1.1"/>
    <path d="M950.9-446.5s32.1,65.1,57.7,71.7,44.4,4.8,80.8,12.6c36.4,7.9,48.9,94.5,96.7,103.9,47.8,9.4,89.9-32.8,135.4-14,45.5,18.7,57.5,61.3,80.2,61.3s69.4-24.8,117.8-8c48.4,16.8,42.2-52.9,42.2-52.9,0,0-84.8-82.1-284.6-128.6-199.7-46.5-326.2-46.1-326.2-46.1Z" fill="#00a99d" stroke="#00a99d" stroke-miterlimit="10" stroke-width="1.1"/>
    <path d="M600.7-332.3c61.6,29.1,40,9.7,70.8-30,30.8-39.7,119-14.5,134.4,33.8,15.4,48.3,4.1,55.7-7.2,72.6-11.3,16.9-83.1,38.8-136.5,49-53.4,10.1-113.9,18.6-179.6-16.9-65.7-35.5,56.4-137.6,118-108.5Z" fill="#00a99d" stroke="#00a99d" stroke-miterlimit="10" stroke-width="1.4"/>
    <path d="M891.7-228c33.3-7.7-10.2-34.4,55.5-34.4s141.7,6.1,168.1,28.8c26.5,22.7,71.7,37.2,133.1,31.6,61.4-5.6,28.2,31,28.2,31h-409.7s-8.5-49.3,24.8-57Z" fill="#00a99d" stroke="#00a99d" stroke-miterlimit="10" stroke-width=".7"/>
  </g>
  <path d="M.6,230C203.5,97.7,462.9,17.4,746.5,15.1c287.4-2.3,560.8,82.3,767.9,214.4" fill="#c0f2ff"/>
  <path d="M922.4,24.4s15.5,72.7,32.2,77,47.8-4.3,65.4,0,49.7,90.4,87.6,99.6,132.2-35.8,148.1-35.6,23.8,45.7,85.9,48.9c1.6,0,115.2-19.3,115.2-19.3,0,0-136.6-78.2-282.4-119-184.3-51.5-252.1-51.5-252.1-51.5Z" fill="#00a99d"/>
  <path d="M966.5,229.5s-50.8-77.8-101.6-86-83.6-5.9-107.7-1.8-79.8,21.9-100.4,26-16.8,21.9-31.9,28.8-82.7,10.5-91.9,17.8-11.4,15.2-11.4,15.2h444.8Z" fill="#00a99d"/>
  <path d="M612.2,15.6" fill="#00a99d"/>
  <path d="M612.2,15.6" fill="#00a99d"/>
  <path d="M724.3,15.6s-141.6,2-280.2,31.4-273.3,90.4-273.3,90.4c0,0,65.1,39.8,85.4,39.8s133,4.3,159.3-8.2c26.3-12.5,7.7-8,20.7-33.6,12.9-25.6,158.1-11.1,185.3-15.4,27.1-4.3,0-28.2,12.2-45.6s56.4-28.9,88.8-28.4,1.9-30.4,1.9-30.4Z" fill="#00a99d"/>
</svg>