<svg height="20" viewBox="0 0 20 20" width="20" xmlns="http://www.w3.org/2000/svg"><path d="m-1853.7 1640.7c-63.2-63.2-102.2-149.8-110.8-239v-2783.1c16.8-195.3 178.9-335.9 366.9-363.7 1050.6-15.4 2103.3-2 3154.7-6.8 217.5 13 408 148.8 427.5 375.7v2772.8c-18.1 222.8-208.9 363-422.3 375.7h-3104.5c-114.3-8.1-229.7-49.8-311.5-131.6zm1537.2-498.3v-215.1c-85.6 10.3-168.2 19.1-252.8-3.7-204.3-55.2-172.5-209.1-312.5-314.5-28.4-21.4-142.7-81.1-28.1-86.2 179.7-8 205.9 180.5 343.4 232.2 80.8 30.4 171.1 18.7 250.2-11.6 15.1-59.5 33.3-115.9 82.8-155.6-45.2-12.7-94.1-15.1-140.9-24.9-251.1-52.7-416.2-188.6-449.2-452.5-20.5-164.1 8.6-306.3 127.9-425-37.6-99.7-33.4-215.6 16.5-310.3 129.6-12.4 251.1 59.3 360 119.7 215.5-52.3 442.8-52.3 658.3 0 87.9-49.2 249.9-140.8 352.3-122.1 16.2 3 32.1 60.3 36.3 77.7 19.5 80.1 17 157.9-12 235.1 127.8 128.4 152.3 286.3 121.8 460.4-52.8 301.2-302.4 417.7-584 434.2-6.2 5.6 23.2 30.2 28 36.7 99.7 133.8 35.9 357.2 54.7 515.3 8.9 74.7 95.5 48.6 142.8 33.8 672.7-210.3 1066.6-967.8 715-1617.1-353.1-652.5-1244.6-838.4-1876.7-487.9-822.1 455.7-832.8 1529.4-15.5 1996.9 70.1 40.1 256.6 132.8 332.7 123.6 17.6-2.1 45.4-22.1 49.1-39z"/><path d="m-2476.2 1713.8c-5.2-5.4-4.6-17-6.9-24.2-6-5.2-30.5 8.6-25.4-10.9 15.2 2.5 67.9-5.7 75.5 4.8 15.4 21.4-21.5 52.8-43.2 30.3z"/><path d="m-2450.7 1771.4c1.9 2.1 28.1 2.2 17.4 16.2-10.1-10.3-73.8-17.3-70-33.6l72.5-28.6c-4.1 20.2-30.2 18.5-19.9 46z"/><path d="m-2437.2 1623c30.9 30.7-42.4 66.3-44.8 16.8-1.1-23.3 31.5-30 44.8-16.8zm-26.6 4.4c-20.1 6.2-2.5 37.2 17.7 23 13.5-9.5 1.5-28.9-17.7-23z"/><g fill="#fff"><path d="m-316.5 1142.4c-3.6 16.9-31.5 36.8-49.1 39-76.1 9.2-262.6-83.5-332.7-123.6-817.2-467.4-806.5-1541.1 15.5-1996.9 632.1-350.4 1523.6-164.6 1876.9 487.9 351.6 649.3-42.3 1406.8-715 1617.1-47.4 14.8-133.9 40.9-142.8-33.8-18.9-158.1 44.9-381.5-54.7-515.3-4.8-6.5-34.2-31.1-28-36.7 281.6-16.5 531.2-133.1 584-434.2 30.5-174.1 6-332-121.8-460.4 28.9-77.3 31.5-155.1 12-235.1-4.2-17.4-20.1-74.7-36.3-77.7-102.4-18.7-264.4 73-352.3 122.1-215.6-52.2-442.8-52.3-658.3 0-109-60.4-230.4-132.1-360-119.7-49.9 94.7-54.1 210.5-16.5 310.3-119.3 118.7-148.4 260.9-127.9 425 33 263.8 198.1 399.7 449.2 452.5 46.7 9.8 95.6 12.2 140.9 24.9-49.5 39.7-67.7 96-82.8 155.6-79.1 30.3-169.3 42-250.2 11.6-137.4-51.7-163.7-240.1-343.4-232.2-114.6 5.1-.2 64.8 28.1 86.2 140 105.4 108.2 259.3 312.5 314.5 84.6 22.8 167.2 14.1 252.8 3.7v215.1z"/><path d="m-2463.8 1627.4c19.2-5.9 31.3 13.5 17.7 23-20.3 14.2-37.9-16.8-17.7-23z"/></g></svg>