<?xml version="1.0" encoding="UTF-8"?>
<svg xmlns="http://www.w3.org/2000/svg" width="131.1" height="129.1" version="1.1" viewBox="0 0 131.1 129.1">
  <g id="_レイヤー_4" data-name="レイヤー_4">
    <path d="M2.1,79" fill="none" stroke="#fff" strokeMiterlimit="10" stroke-width=".2"/>
  </g>
  <g id="_レイヤー_6" data-name="レイヤー_6">
    <g>
      <path d="M57.1,93.3s-1.1,10.1-.5,11.9,8.3,3.2,10.6,3.3,5.9-.6,6.2-3.9c.3-3.3-6.6-3.1-6.9-3.7s1.4-5.1,1.4-5.1l-10.8-2.6Z" fill="#b3b3b3"/>
      <path d="M46.1,71.6s2.3,4.2,4.4,5.8c2.1,1.6,10.3,3.5,12.1,4.7s10.7,5.1,5,14.9c0,0-18.9-5.5-23.4-6.8s-7.2-4.1-9.1-9.2,2-10.3,2-10.3c0,0,3.7,3.8,4.8,3.6s4.3-2.7,4.3-2.7Z" fill="#fff"/>
      <g>
        <path d="M46,72.2l18.1-13.6s6.8,3.4,11.4,7.1c4.6,3.7,8.3,11.5,8.3,11.5,0,.2.3.4.6.7l-9.4,8.3c-.3-.4-.6-.9-.9-1.4-1.7-2.6-3.8-5.9-4.8-6.1-1.6-.3-5.1,4.2-5.1,4.2-1.6-1.1-12-4.6-13.7-5.4s-4.5-5.4-4.5-5.4" fill="#b3b3b3"/>
        <path d="M74.2,85.2c.6.8,1,1.6,1.4,1.9,1.6,1.3,11.1,10.6,15.6,4.6,2.2-3.1-1.2-4.7-.8-5.3s1.8.5,1.9-.9-6.5-6.4-8.6-8.5c0,0-1.2,2.6-4,5.2s-5.4,3-5.4,3Z" fill="#fff"/>
      </g>
      <g>
        <path d="M66,57.2s-6.4,4.7-12.5,9.2c-5.6,4.2-10.9,8.2-11.8,8.1-1.8-.2-8.3-6.2-8.2-10.3s17.8-16.9,22.1-17.5c4.3-.7,10.4,10.5,10.4,10.5Z" fill="#fff"/>
        <path d="M37,70.9s20.6-15.5,22.6-17.2,3.7-.8,3.7-.8c0,0,1,1.3,1.3,1.9s1.3,2.4,1.3,2.4c0,0-20.2,16.3-24.3,17.3-1.7-.3-3.8-2.6-4.8-3.6Z" fill="#e6e6e6"/>
      </g>
      <path d="M40.3,63.5" fill="none" stroke="#000" strokeMiterlimit="10" stroke-width=".3"/>
      <g>
        <ellipse cx="75.2" cy="41.4" rx="20.3" ry="20.9" fill="#ccc"/>
        <circle cx="78" cy="43.2" r="19.6" fill="#fff"/>
      </g>
      <g>
        <ellipse cx="64.6" cy="30.6" rx="8.5" ry="7.8" transform="translate(1.4 64.1) rotate(-53.3)" fill="#b3b3b3"/>
        <path d="M58.3,25.9c2.7-3.6,7.2-4.7,10-2.6s2.9,6.7.2,10.2-7.1,4.8-9.9,2.7-3-6.8-.3-10.3Z" fill="#fff"/>
      </g>
    </g>
  </g>
</svg>