<?xml version="1.0" encoding="UTF-8"?>
<svg id="_レイヤー_1" data-name="レイヤー_1" xmlns="http://www.w3.org/2000/svg" width="1280" height="229.5" version="1.1" viewBox="0 0 1280 229.5">
  <g>
    <path d="M640.3-545.9c-440.2,0-797.1,125.5-797.1,280.4h1594.3c0-154.8-356.9-280.4-797.1-280.4Z" fill="#29abe2"/>
    <path d="M-35.3-413.8s45.7,17.2,59.9,25c20.2,11.1,40.7,14.9,59.6,13.1,45.1-4.4,66.3-5.6,72.3-18,8.4-17.4,3.8-18.5,21.7-44.3,17.9-25.9,103.8,15,121.7,7.9,17.9-7.1,10-31.9,10-31.9-8.5-35.8,69.1-13.2,93.6-15.7,24.5-2.4,28.5-57.8,28.5-57.8,0,0-158.9,14.7-282.2,48.9-121.4,33.7-185,72.8-185,72.8Z" fill="#00a99d" stroke="#00a99d" strokeMiterlimit="10" stroke-width="1.1"/>
    <path d="M772.7-541s32.1,65.1,57.7,71.7,44.4,4.8,80.8,12.6c36.4,7.9,48.9,94.5,96.7,103.9,47.8,9.4,89.9-32.8,135.4-14,45.5,18.7,57.5,61.3,80.2,61.3s69.4-24.8,117.8-8c48.4,16.8,42.2-52.9,42.2-52.9,0,0-84.8-82.1-284.6-128.6-199.7-46.5-326.2-46.1-326.2-46.1Z" fill="#00a99d" stroke="#00a99d" strokeMiterlimit="10" stroke-width="1.1"/>
    <path d="M422.6-426.8c61.6,29.1,40,9.7,70.8-30,30.8-39.7,119-14.5,134.4,33.8,15.4,48.3,4.1,55.7-7.2,72.6-11.3,16.9-83.1,38.8-136.5,49-53.4,10.1-113.9,18.6-179.6-16.9-65.7-35.5,56.4-137.6,118-108.5Z" fill="#00a99d" stroke="#00a99d" strokeMiterlimit="10" stroke-width="1.4"/>
    <path d="M713.5-322.5c33.3-7.7-10.2-34.4,55.5-34.4s141.7,6.1,168.1,28.8c26.5,22.7,71.7,37.2,133.1,31.6,61.4-5.6,28.2,31,28.2,31h-409.7s-8.5-49.3,24.8-57Z" fill="#00a99d" stroke="#00a99d" strokeMiterlimit="10" stroke-width=".7"/>
  </g>
  <path d="M.6,230C172,97.7,391.3,17.4,631,15.1c242.9-2.3,474,82.3,649,214.4" fill="#78d8f9"/>
  <path d="M779.6,24.4s13.1,72.7,27.2,77,40.4-4.3,55.3,0,42,90.4,74,99.6,111.7-35.8,125.2-35.6,20.1,45.7,72.6,48.9c1.4,0,97.4-19.3,97.4-19.3,0,0-115.4-78.2-238.7-119-155.7-51.5-213.1-51.5-213.1-51.5Z" fill="#00a99d"/>
  <path d="M816.9,229.5s-42.9-77.8-85.9-86-70.7-5.9-91.1-1.8-67.5,21.9-84.8,26-14.2,21.9-27,28.8-69.9,10.5-77.7,17.8-9.6,15.2-9.6,15.2h376Z" fill="#00a99d"/>
  <path d="M612.2,15.6" fill="#00a99d"/>
  <path d="M612.2,15.6" fill="#00a99d"/>
  <path d="M612.2,15.6s-119.6,2-236.8,31.4-231,90.4-231,90.4c0,0,55.1,39.8,72.2,39.8s112.4,4.3,134.6-8.2,6.5-8,17.5-33.6c10.9-25.6,133.6-11.1,156.6-15.4,22.9-4.3,0-28.2,10.3-45.6s47.7-28.9,75-28.4,1.6-30.4,1.6-30.4Z" fill="#00a99d"/>
</svg>