<?xml version="1.0" encoding="UTF-8"?>
<svg
className="earth_svg" 
id="earth_svg" 
data-name="earth_svg" xmlns="http://www.w3.org/2000/svg" width="1280" height="292.7" version="1.1" viewBox="0 0 1280 292.7">
  <path d="M640,19.1C286.5,19.1,0,141.6,0,292.7h1280c0-151.1-286.5-273.6-640-273.6Z" fill="#29abe2"/>
  <path d="M97.6,148s36.7,16.8,48.1,24.4c16.2,10.9,32.7,14.6,47.8,12.8,36.2-4.3,53.2-5.5,58-17.6,6.7-17,3.1-18,17.4-43.3s83.3,14.7,97.7,7.8,8-31.2,8-31.2c-6.9-34.9,55.5-12.9,75.1-15.3s22.9-56.4,22.9-56.4c0,0-127.6,14.3-226.5,47.7-97.4,32.9-148.5,71-148.5,71Z" fill="#00a99d" stroke="#00a99d" strokeMiterLimit="10"/>
  <path d="M759.9,23.9s12.2,63.5,32.8,70,35.6,4.7,64.9,12.3,39.3,92.3,77.7,101.4,72.2-32,108.7-13.7,46.1,59.8,64.4,59.8,55.7-24.2,94.6-7.8c38.8,16.4,26.4-60.2,26.4-60.2,0,0-60.7-71.6-221-116.9-160.3-45.3-248.4-45-248.4-45Z" fill="#00a99d" stroke="#00a99d" strokeMiterLimit="10"/>
  <path d="M465.2,135.4c49.4,28.4,32.1,9.5,56.8-29.2s95.6-14.2,107.9,33c12.4,47.1,3.3,54.4-5.8,70.9-9.1,16.5-66.7,37.9-109.6,47.8-42.8,9.9-91.4,18.1-144.2-16.5-52.7-34.6,45.3-134.3,94.7-105.9Z" fill="#00a99d" stroke="#00a99d" strokeMiterLimit="10" strokeWidth="1.2"/>
  <path d="M698.8,237.1c26.7-7.5-8.2-33.5,44.5-33.6s113.7,5.9,135,28.1c21.2,22.2,57.6,36.3,106.9,30.8s22.6,30.3,22.6,30.3h-328.9s-6.9-48.1,19.9-55.6Z" fill="#00a99d" stroke="#00a99d" strokeMiterLimit="10" strokeWidth=".6"/>
</svg>