<?xml version="1.0" encoding="UTF-8"?>
<svg xmlns="http://www.w3.org/2000/svg" width="300" height="300" xmlns:xlink="http://www.w3.org/1999/xlink" version="1.1" viewBox="0 0 300 300">
  <defs>
    <clipPath id="clippath">
      <ellipse cx="162.7" cy="148.4" rx="117.2" ry="117.2" fill="none"/>
    </clipPath>
    <linearGradient id="_名称未設定グラデーション_41" data-name="名称未設定グラデーション 41" x1="45.5" y1="148.4" x2="279.8" y2="148.4" gradientUnits="userSpaceOnUse">
      <stop offset="0" stopColor="#9dd8f2"/>
      <stop offset=".4" stopColor="#6ac4eb"/>
      <stop offset=".8" stopColor="#3bb2e4"/>
      <stop offset="1" stopColor="#29abe2"/>
    </linearGradient>
    <linearGradient id="_名称未設定グラデーション_52" data-name="名称未設定グラデーション 52" x1="101.6" y1="46.3" x2="222" y2="46.3" gradientUnits="userSpaceOnUse">
      <stop offset="0" stopColor="#9dd8f2"/>
      <stop offset=".5" stopColor="#49a1d5"/>
      <stop offset=".8" stopColor="#147ec3"/>
      <stop offset="1" stopColor="#0071bc"/>
    </linearGradient>
    <linearGradient id="_名称未設定グラデーション_5" data-name="名称未設定グラデーション 5" x1="45.5" y1="126.6" x2="279.8" y2="126.6" gradientUnits="userSpaceOnUse">
      <stop offset="0" stopColor="#36bdff"/>
      <stop offset="1" stopColor="#01a3ff"/>
    </linearGradient>
    <linearGradient id="_名称未設定グラデーション_53" data-name="名称未設定グラデーション 53" x1="56.8" y1="229.8" x2="270.6" y2="229.8" gradientUnits="userSpaceOnUse">
      <stop offset="0" stopColor="#9dd8f2"/>
      <stop offset=".5" stopColor="#49a1d5"/>
      <stop offset=".8" stopColor="#147ec3"/>
      <stop offset="1" stopColor="#0071bc"/>
    </linearGradient>
  </defs>
  <!-- Generator: Adobe Illustrator 28.7.4, SVG Export Plug-In . SVG Version: 1.2.0 Build 166)  -->
  <g>
    <g id="_レイヤー_2" data-name="レイヤー_2">
      <g clipPath="url(#clippath)">
        <g>
          <path d="M257.9,81.3c-21.2,16.5-56.3,27.3-96.1,27.3s-74-10.4-95.2-26.9c8.2-11.8,18.6-22.3,30.5-30.4,1.5-1,2.9-1.9,4.5-2.9,17.8-10.9,37.8-17.2,60.2-17.2s41.5,5.7,58.7,15.8c14.8,8.6,27.6,20.3,37.4,34.3Z" fill="#fff"/>
          <path d="M279.8,148.4c0,64.7-52.5,117.2-117.2,117.2s-117.2-52.5-117.2-117.2,20.5-76.1,51.7-97.2c1.5-1,2.9-1.9,4.5-2.9,17.8-10.9,38.7-17.2,61.1-17.2s41.5,5.7,58.7,15.8c35,20.3,58.5,58.1,58.5,101.4Z" fill="url(#_名称未設定グラデーション_41)"/>
          <path d="M222,47.4c-17.8,9.1-39.1,14-61.6,14s-41.6-4.7-58.8-12.9c17.8-10.9,39-17.2,61.4-17.2s41.7,6.1,59,16.1Z" fill="url(#_名称未設定グラデーション_52)"/>
          <path d="M279.8,148.7c0,.5,0,1.1,0,1.6-31.7,13.3-72.6,21.3-117.2,21.3s-85.5-8-117.2-21.3c0-.5,0-1.1,0-1.6,0-25,7.7-48.3,21-67.3,21.2,16.5,56.4,27.4,96.2,27.4s74.9-10.8,96.1-27.3c13.3,19,21.1,42.1,21.1,67.1Z" fill="url(#_名称未設定グラデーション_5)"/>
          <path d="M270.6,194.1c-18,41.6-58.3,71.5-106.5,71.5s-88.7-27.3-107.3-67.5c27.8,19.9,65.6,31.4,106.1,31.4s79.5-14,107.7-35.4Z" fill="url(#_名称未設定グラデーション_53)"/>
          <circle cx="86.1" cy="118.8" r="7.9" fill="#fff"/>
          <circle cx="103.3" cy="139" r="3.9" fill="#fff"/>
          <circle cx="220.5" cy="194.9" r="10.1" fill="#fff"/>
          <circle cx="229.2" cy="227.6" r="5.1" fill="#fff"/>
        </g>
      </g>
    </g>
  </g>
</svg>