<?xml version="1.0" encoding="UTF-8"?>
<svg xmlns="http://www.w3.org/2000/svg" width="300" height="300" xmlnsXlink="http://www.w3.org/1999/xlink" version="1.1" viewBox="0 0 300 300">
  <defs>
    <linearGradient id="gradation" data-name="gradation 722" x1="3.9" y1="150.4" x2="290.3" y2="150.4" gradientUnits="userSpaceOnUse">
      <stop offset="0" stopColor="#ffbb94"/>
      <stop offset="0" stopColor="#fdbd83"/>
      <stop offset=".4" stopColor="#dca676"/>
      <stop offset="1" stopColor="#99775c"/>
    </linearGradient>
  </defs>
  <g>
    <g id="_レイヤー_2" data-name="レイヤー_2">
      <g>
        <g>
          <g>
            <path d="M231.6,152.9c0,44.5-36.1,80.5-80.5,80.5-4.7,0-9.4-.4-13.9-1.2,37.9-6.6,66.6-39.6,66.7-79.3,0-39.7-28.7-72.7-66.6-79.3,4.5-.8,9.1-1.2,13.9-1.2,44.5,0,80.5,36.1,80.5,80.5Z" fill="#b28866"/>
            <path d="M203.8,152.9c0,39.7-28.8,72.7-66.7,79.3-37.9-6.6-66.6-39.6-66.6-79.3,0-39.7,28.8-72.7,66.7-79.3,37.8,6.6,66.6,39.6,66.6,79.3Z" fill="#dbb289"/>
            <circle cx="125.7" cy="114.7" r="5.8" fill="#b28866"/>
            <circle cx="162.8" cy="151.8" r="8.9" fill="#b28866"/>
            <circle cx="125.7" cy="163.5" r="5.1" fill="#b28866"/>
            <circle cx="153.8" cy="205.8" r="3.3" fill="#b28866"/>
            <circle cx="96.3" cy="134.9" r="5.8" fill="#b28866"/>
            <circle cx="160.4" cy="92.8" r="3.3" fill="#b28866"/>
            <circle cx="107.1" cy="196.9" r="8.9" fill="#b28866"/>
            <circle cx="199.3" cy="126.3" r="5.8" fill="#b28866" stroke="#dbb289" strokeMiterlimit="10" strokeWidth="2"/>
            <circle cx="191.8" cy="195.9" r="9.9" fill="#b28866" stroke="#dbb289" strokeMiterlimit="10" strokeWidth="2"/>
            <ellipse cx="94.1" cy="96" rx="8.3" ry="5.8" transform="translate(-40.3 94.6) rotate(-45)" fill="#b28866" stroke="#dbb289" strokeMiterlimit="10" strokeWidth="2"/>
            <ellipse cx="75.9" cy="176.2" rx="6.1" ry="10" transform="translate(-53.2 34.2) rotate(-19)" fill="#b28866" stroke="#dbb289" strokeMiterlimit="10" strokeWidth="2"/>
            <circle cx="140.7" cy="227.6" r="5.8" fill="#b28866" stroke="#dbb289" strokeMiterlimit="10" strokeWidth="2"/>
            <ellipse cx="209.1" cy="100.8" rx="5.8" ry="9.2" transform="translate(-16.6 155.2) rotate(-39.3)" fill="#b28866"/>
          </g>
          <ellipse cx="220" cy="186" rx="9.2" ry="5.8" transform="translate(-42.6 304.6) rotate(-64.5)" fill="#b28866"/>
        </g>
        <path d="M216.8,104.9c1.4,2.2,3.2,4.6,4.4,7,10.1-1,16.7-1.2,17.7,1.7,1,2.9-3.2,7.4-11.4,12.8-15,10-43.1,23-76.3,34.7-29.5,10.4-56.5,17.4-74.7,20-13.5,1.9-22.2,1.4-23.4-2.1s5.2-9.1,17.3-16.2c-.3-4.3-.3-3.7-.4-7.8C28.2,174.1,1.1,192.1,4.1,200.5c3,8.5,35,5.6,79.8-5.8,21.4-5.4,45.7-12.8,71.2-21.8,28.3-10,54.2-20.5,75.6-30.6,38.4-18.1,62.3-34.4,59.4-42.5-2.8-8-32.3-4.8-73.3,5.1Z" fill="url(#gradation)"/>
      </g>
    </g>
  </g>
</svg>